<svg width="10" height="6" viewBox="0 0 10 6" fill="none" xmlns="http://www.w3.org/2000/svg">
<path fill-rule="evenodd" clip-rule="evenodd" d="M1.0191 1.08392C1.04768 1.05732 1.08163 1.03621 1.119 1.02181C1.15638 1.00741 1.19645 1 1.23692 1C1.27738 1 1.31745 1.00741 1.35483 1.02181C1.39221 1.03621 1.42616 1.05732 1.45474 1.08392L4.92879 4.30995L8.40285 1.08392C8.43145 1.05736 8.46541 1.03629 8.50278 1.02192C8.54016 1.00755 8.58021 1.00015 8.62067 1.00015C8.66112 1.00015 8.70118 1.00755 8.73855 1.02192C8.77592 1.03629 8.80988 1.05736 8.83849 1.08392C8.86709 1.11048 8.88978 1.142 8.90526 1.1767C8.92074 1.2114 8.92871 1.24859 8.92871 1.28615C8.92871 1.32371 8.92074 1.3609 8.90526 1.3956C8.88978 1.4303 8.86709 1.46183 8.83849 1.48839L5.14661 4.91608C5.11803 4.94268 5.08408 4.96379 5.04671 4.97819C5.00933 4.99259 4.96926 5 4.92879 5C4.88832 5 4.84825 4.99259 4.81088 4.97819C4.7735 4.96379 4.73955 4.94268 4.71097 4.91608L1.0191 1.48839C0.990446 1.46185 0.967714 1.43033 0.952204 1.39563C0.936695 1.36093 0.928711 1.32372 0.928711 1.28615C0.928711 1.24858 0.936695 1.21138 0.952204 1.17667C0.967714 1.14197 0.990446 1.11045 1.0191 1.08392Z" fill="#003154"/>
<path fill-rule="evenodd" clip-rule="evenodd" d="M1.0191 1.08392C1.04768 1.05732 1.08163 1.03621 1.119 1.02181C1.15638 1.00741 1.19645 1 1.23692 1C1.27738 1 1.31745 1.00741 1.35483 1.02181C1.39221 1.03621 1.42616 1.05732 1.45474 1.08392L4.92879 4.30995L8.40285 1.08392C8.43145 1.05736 8.46541 1.03629 8.50278 1.02192C8.54016 1.00755 8.58021 1.00015 8.62067 1.00015C8.66112 1.00015 8.70118 1.00755 8.73855 1.02192C8.77592 1.03629 8.80988 1.05736 8.83849 1.08392C8.86709 1.11048 8.88978 1.142 8.90526 1.1767C8.92074 1.2114 8.92871 1.24859 8.92871 1.28615C8.92871 1.32371 8.92074 1.3609 8.90526 1.3956C8.88978 1.4303 8.86709 1.46183 8.83849 1.48839L5.14661 4.91608C5.11803 4.94268 5.08408 4.96379 5.04671 4.97819C5.00933 4.99259 4.96926 5 4.92879 5C4.88832 5 4.84825 4.99259 4.81088 4.97819C4.7735 4.96379 4.73955 4.94268 4.71097 4.91608L1.0191 1.48839C0.990446 1.46185 0.967714 1.43033 0.952204 1.39563C0.936695 1.36093 0.928711 1.32372 0.928711 1.28615C0.928711 1.24858 0.936695 1.21138 0.952204 1.17667C0.967714 1.14197 0.990446 1.11045 1.0191 1.08392Z" fill="#003154"/>
<path fill-rule="evenodd" clip-rule="evenodd" d="M1.0191 1.08392C1.04768 1.05732 1.08163 1.03621 1.119 1.02181C1.15638 1.00741 1.19645 1 1.23692 1C1.27738 1 1.31745 1.00741 1.35483 1.02181C1.39221 1.03621 1.42616 1.05732 1.45474 1.08392L4.92879 4.30995L8.40285 1.08392C8.43145 1.05736 8.46541 1.03629 8.50278 1.02192C8.54016 1.00755 8.58021 1.00015 8.62067 1.00015C8.66112 1.00015 8.70118 1.00755 8.73855 1.02192C8.77592 1.03629 8.80988 1.05736 8.83849 1.08392C8.86709 1.11048 8.88978 1.142 8.90526 1.1767C8.92074 1.2114 8.92871 1.24859 8.92871 1.28615C8.92871 1.32371 8.92074 1.3609 8.90526 1.3956C8.88978 1.4303 8.86709 1.46183 8.83849 1.48839L5.14661 4.91608C5.11803 4.94268 5.08408 4.96379 5.04671 4.97819C5.00933 4.99259 4.96926 5 4.92879 5C4.88832 5 4.84825 4.99259 4.81088 4.97819C4.7735 4.96379 4.73955 4.94268 4.71097 4.91608L1.0191 1.48839C0.990446 1.46185 0.967714 1.43033 0.952204 1.39563C0.936695 1.36093 0.928711 1.32372 0.928711 1.28615C0.928711 1.24858 0.936695 1.21138 0.952204 1.17667C0.967714 1.14197 0.990446 1.11045 1.0191 1.08392Z" stroke="#003154" stroke-width="0.5"/>
<path fill-rule="evenodd" clip-rule="evenodd" d="M1.0191 1.08392C1.04768 1.05732 1.08163 1.03621 1.119 1.02181C1.15638 1.00741 1.19645 1 1.23692 1C1.27738 1 1.31745 1.00741 1.35483 1.02181C1.39221 1.03621 1.42616 1.05732 1.45474 1.08392L4.92879 4.30995L8.40285 1.08392C8.43145 1.05736 8.46541 1.03629 8.50278 1.02192C8.54016 1.00755 8.58021 1.00015 8.62067 1.00015C8.66112 1.00015 8.70118 1.00755 8.73855 1.02192C8.77592 1.03629 8.80988 1.05736 8.83849 1.08392C8.86709 1.11048 8.88978 1.142 8.90526 1.1767C8.92074 1.2114 8.92871 1.24859 8.92871 1.28615C8.92871 1.32371 8.92074 1.3609 8.90526 1.3956C8.88978 1.4303 8.86709 1.46183 8.83849 1.48839L5.14661 4.91608C5.11803 4.94268 5.08408 4.96379 5.04671 4.97819C5.00933 4.99259 4.96926 5 4.92879 5C4.88832 5 4.84825 4.99259 4.81088 4.97819C4.7735 4.96379 4.73955 4.94268 4.71097 4.91608L1.0191 1.48839C0.990446 1.46185 0.967714 1.43033 0.952204 1.39563C0.936695 1.36093 0.928711 1.32372 0.928711 1.28615C0.928711 1.24858 0.936695 1.21138 0.952204 1.17667C0.967714 1.14197 0.990446 1.11045 1.0191 1.08392Z" stroke="#003154" stroke-width="0.5"/>
</svg>
